<mxfile host="65bd71144e">
    <diagram id="kmAJGGws22bIz-2701WK" name="Page-1">
        <mxGraphModel dx="556" dy="322" grid="0" gridSize="10" guides="1" tooltips="1" connect="1" arrows="1" fold="1" page="1" pageScale="1" pageWidth="850" pageHeight="1100" math="0" shadow="0">
            <root>
                <mxCell id="0"/>
                <mxCell id="1" parent="0"/>
                <mxCell id="279" style="edgeStyle=orthogonalEdgeStyle;rounded=0;orthogonalLoop=1;jettySize=auto;html=1;" parent="1" source="17" target="117" edge="1">
                    <mxGeometry relative="1" as="geometry"/>
                </mxCell>
                <mxCell id="17" value="&lt;font face=&quot;Times New Roman&quot;&gt;Pengujian Pada Robot&lt;/font&gt;" style="rounded=1;whiteSpace=wrap;html=1;arcSize=0;" parent="1" vertex="1">
                    <mxGeometry x="316.56" y="166" width="72.5" height="30" as="geometry"/>
                </mxCell>
                <mxCell id="280" style="edgeStyle=orthogonalEdgeStyle;rounded=0;orthogonalLoop=1;jettySize=auto;html=1;entryX=0.5;entryY=0;entryDx=0;entryDy=0;" parent="1" source="24" target="48" edge="1">
                    <mxGeometry relative="1" as="geometry"/>
                </mxCell>
                <mxCell id="24" value="PWM didapatkan sesuai sudut" style="shape=parallelogram;perimeter=parallelogramPerimeter;whiteSpace=wrap;html=1;fixedSize=1;" parent="1" vertex="1">
                    <mxGeometry x="290.00000000000006" y="308.5" width="125.62" height="30" as="geometry"/>
                </mxCell>
                <mxCell id="248" style="edgeStyle=orthogonalEdgeStyle;rounded=0;orthogonalLoop=1;jettySize=auto;html=1;" parent="1" source="28" target="235" edge="1">
                    <mxGeometry relative="1" as="geometry"/>
                </mxCell>
                <mxCell id="281" style="edgeStyle=orthogonalEdgeStyle;rounded=0;orthogonalLoop=1;jettySize=auto;html=1;entryX=1;entryY=0.5;entryDx=0;entryDy=0;" parent="1" source="28" target="117" edge="1">
                    <mxGeometry relative="1" as="geometry">
                        <Array as="points">
                            <mxPoint x="440.31" y="444.5"/>
                            <mxPoint x="440.31" y="231.5"/>
                        </Array>
                    </mxGeometry>
                </mxCell>
                <mxCell id="28" value="sudah dapatkan semua pwm?&lt;br&gt;" style="rhombus;whiteSpace=wrap;html=1;" parent="1" vertex="1">
                    <mxGeometry x="314.42" y="404.5" width="80" height="80" as="geometry"/>
                </mxCell>
                <mxCell id="31" value="No" style="text;html=1;align=center;verticalAlign=middle;resizable=0;points=[];autosize=1;strokeColor=none;" parent="1" vertex="1">
                    <mxGeometry x="410" y="426" width="30" height="20" as="geometry"/>
                </mxCell>
                <mxCell id="251" style="edgeStyle=orthogonalEdgeStyle;rounded=0;orthogonalLoop=1;jettySize=auto;html=1;" parent="1" source="32" target="66" edge="1">
                    <mxGeometry relative="1" as="geometry"/>
                </mxCell>
                <mxCell id="32" value="Mulai" style="rounded=1;whiteSpace=wrap;html=1;arcSize=46;" parent="1" vertex="1">
                    <mxGeometry x="318.34999999999997" y="40" width="70" height="30" as="geometry"/>
                </mxCell>
                <mxCell id="51" style="edgeStyle=orthogonalEdgeStyle;rounded=0;orthogonalLoop=1;jettySize=auto;html=1;" parent="1" source="48" target="28" edge="1">
                    <mxGeometry relative="1" as="geometry"/>
                </mxCell>
                <mxCell id="48" value="&lt;font face=&quot;Times New Roman&quot;&gt;Process Data&lt;/font&gt;" style="shape=process;whiteSpace=wrap;html=1;backgroundOutline=1;size=0.10390689941812137;" parent="1" vertex="1">
                    <mxGeometry x="304.83" y="363.5" width="96.24" height="15" as="geometry"/>
                </mxCell>
                <mxCell id="EL28b4FJKa6z-aZqXPBe-283" value="" style="edgeStyle=none;html=1;" parent="1" source="66" target="92" edge="1">
                    <mxGeometry relative="1" as="geometry"/>
                </mxCell>
                <mxCell id="66" value="&lt;font face=&quot;Times New Roman&quot;&gt;Pengujian IMU&lt;/font&gt;" style="rounded=1;whiteSpace=wrap;html=1;arcSize=0;" parent="1" vertex="1">
                    <mxGeometry x="313.42" y="90" width="79.06" height="15" as="geometry"/>
                </mxCell>
                <mxCell id="254" style="edgeStyle=orthogonalEdgeStyle;rounded=0;orthogonalLoop=1;jettySize=auto;html=1;" parent="1" source="92" target="17" edge="1">
                    <mxGeometry relative="1" as="geometry"/>
                </mxCell>
                <mxCell id="92" value="&lt;font face=&quot;Times New Roman&quot;&gt;Process Data&lt;/font&gt;" style="shape=process;whiteSpace=wrap;html=1;backgroundOutline=1;rounded=0;" parent="1" vertex="1">
                    <mxGeometry x="305.31" y="126" width="95" height="15" as="geometry"/>
                </mxCell>
                <mxCell id="115" value="&lt;font face=&quot;Times New Roman&quot;&gt;Selesai&lt;/font&gt;" style="whiteSpace=wrap;html=1;rounded=1;arcSize=50;" parent="1" vertex="1">
                    <mxGeometry x="322.37" y="570" width="64.11" height="20" as="geometry"/>
                </mxCell>
                <mxCell id="127" value="" style="edgeStyle=orthogonalEdgeStyle;rounded=0;orthogonalLoop=1;jettySize=auto;html=1;" parent="1" source="117" target="126" edge="1">
                    <mxGeometry relative="1" as="geometry"/>
                </mxCell>
                <mxCell id="117" value="&lt;font face=&quot;Times New Roman&quot;&gt;Ambil PWM robot&amp;nbsp;&lt;/font&gt;" style="rounded=1;whiteSpace=wrap;html=1;arcSize=0;" parent="1" vertex="1">
                    <mxGeometry x="302.81" y="218.5" width="100" height="25" as="geometry"/>
                </mxCell>
                <mxCell id="132" style="edgeStyle=orthogonalEdgeStyle;rounded=0;orthogonalLoop=1;jettySize=auto;html=1;entryX=0.5;entryY=0;entryDx=0;entryDy=0;" parent="1" source="126" target="24" edge="1">
                    <mxGeometry relative="1" as="geometry"/>
                </mxCell>
                <mxCell id="126" value="Edit Transpiler Robot Hexapod&amp;nbsp;" style="rounded=0;whiteSpace=wrap;html=1;" parent="1" vertex="1">
                    <mxGeometry x="307.81" y="258.5" width="90" height="30" as="geometry"/>
                </mxCell>
                <mxCell id="KCuptCC0jt2x3GmrvqiP-283" value="" style="edgeStyle=none;html=1;" parent="1" source="235" edge="1">
                    <mxGeometry relative="1" as="geometry">
                        <mxPoint x="354.29488151658757" y="570" as="targetPoint"/>
                    </mxGeometry>
                </mxCell>
                <mxCell id="235" value="&lt;font face=&quot;Times New Roman&quot;&gt;Pengujian IMU dan Robot pada Bidang Miring&lt;/font&gt;" style="rounded=1;whiteSpace=wrap;html=1;arcSize=15;" parent="1" vertex="1">
                    <mxGeometry x="304.7300000000001" y="506" width="99.38" height="40" as="geometry"/>
                </mxCell>
            </root>
        </mxGraphModel>
    </diagram>
    <diagram name="NEW of Page-1" id="E-ScOTFrfAVi7HPjkBj_">
        <mxGraphModel dx="731" dy="322" grid="0" gridSize="10" guides="1" tooltips="1" connect="1" arrows="1" fold="1" page="1" pageScale="1" pageWidth="850" pageHeight="1100" math="0" shadow="0">
            <root>
                <mxCell id="nKY59q4rCsEqJBGqj3r6-0"/>
                <mxCell id="nKY59q4rCsEqJBGqj3r6-1" parent="nKY59q4rCsEqJBGqj3r6-0"/>
                <mxCell id="nKY59q4rCsEqJBGqj3r6-10" style="edgeStyle=orthogonalEdgeStyle;rounded=0;orthogonalLoop=1;jettySize=auto;html=1;" parent="nKY59q4rCsEqJBGqj3r6-1" source="nKY59q4rCsEqJBGqj3r6-11" target="nKY59q4rCsEqJBGqj3r6-15" edge="1">
                    <mxGeometry relative="1" as="geometry"/>
                </mxCell>
                <mxCell id="nKY59q4rCsEqJBGqj3r6-11" value="Mulai" style="rounded=1;whiteSpace=wrap;html=1;arcSize=46;" parent="nKY59q4rCsEqJBGqj3r6-1" vertex="1">
                    <mxGeometry x="318.2099999999999" y="41" width="70" height="30" as="geometry"/>
                </mxCell>
                <mxCell id="nKY59q4rCsEqJBGqj3r6-14" value="" style="edgeStyle=none;html=1;" parent="nKY59q4rCsEqJBGqj3r6-1" source="nKY59q4rCsEqJBGqj3r6-15" target="nKY59q4rCsEqJBGqj3r6-17" edge="1">
                    <mxGeometry relative="1" as="geometry"/>
                </mxCell>
                <mxCell id="nKY59q4rCsEqJBGqj3r6-15" value="&lt;font face=&quot;Times New Roman&quot;&gt;Pengujian IMU dan Filter&lt;/font&gt;" style="rounded=1;whiteSpace=wrap;html=1;arcSize=0;" parent="nKY59q4rCsEqJBGqj3r6-1" vertex="1">
                    <mxGeometry x="313.42" y="87" width="79.58" height="24" as="geometry"/>
                </mxCell>
                <mxCell id="4aAqZdeKpI5tSjjUqF1e-4" style="edgeStyle=none;html=1;" edge="1" parent="nKY59q4rCsEqJBGqj3r6-1" source="nKY59q4rCsEqJBGqj3r6-17" target="nKY59q4rCsEqJBGqj3r6-20">
                    <mxGeometry relative="1" as="geometry"/>
                </mxCell>
                <mxCell id="nKY59q4rCsEqJBGqj3r6-17" value="&lt;font face=&quot;Times New Roman&quot;&gt;Process Data&lt;/font&gt;" style="shape=process;whiteSpace=wrap;html=1;backgroundOutline=1;rounded=0;" parent="nKY59q4rCsEqJBGqj3r6-1" vertex="1">
                    <mxGeometry x="306.31" y="127" width="95" height="15" as="geometry"/>
                </mxCell>
                <mxCell id="nKY59q4rCsEqJBGqj3r6-18" value="&lt;font face=&quot;Times New Roman&quot;&gt;Selesai&lt;/font&gt;" style="whiteSpace=wrap;html=1;rounded=1;arcSize=50;" parent="nKY59q4rCsEqJBGqj3r6-1" vertex="1">
                    <mxGeometry x="321.1599999999999" y="326" width="64.11" height="20" as="geometry"/>
                </mxCell>
                <mxCell id="nKY59q4rCsEqJBGqj3r6-25" value="" style="edgeStyle=none;html=1;entryX=0.5;entryY=0;entryDx=0;entryDy=0;" parent="nKY59q4rCsEqJBGqj3r6-1" source="nKY59q4rCsEqJBGqj3r6-20" target="nKY59q4rCsEqJBGqj3r6-24" edge="1">
                    <mxGeometry relative="1" as="geometry">
                        <mxPoint x="354.1200000000001" y="245" as="targetPoint"/>
                    </mxGeometry>
                </mxCell>
                <mxCell id="nKY59q4rCsEqJBGqj3r6-20" value="&lt;font face=&quot;Times New Roman&quot;&gt;Simulasi Inverse Kinematics&lt;br&gt;(Software dan Hardware)&amp;nbsp;&lt;/font&gt;" style="rounded=1;whiteSpace=wrap;html=1;arcSize=0;" parent="nKY59q4rCsEqJBGqj3r6-1" vertex="1">
                    <mxGeometry x="284.40999999999997" y="158" width="139.43" height="34" as="geometry"/>
                </mxCell>
                <mxCell id="UaL8qSEDoXXyafwyNy03-3" value="" style="edgeStyle=none;html=1;entryX=0.5;entryY=0;entryDx=0;entryDy=0;" parent="nKY59q4rCsEqJBGqj3r6-1" source="nKY59q4rCsEqJBGqj3r6-24" target="UaL8qSEDoXXyafwyNy03-2" edge="1">
                    <mxGeometry relative="1" as="geometry"/>
                </mxCell>
                <mxCell id="nKY59q4rCsEqJBGqj3r6-24" value="&lt;font face=&quot;Times New Roman&quot;&gt;Pengujian IMU(Robot) pada Bidang Miring&lt;/font&gt;" style="rounded=1;whiteSpace=wrap;html=1;arcSize=0;" parent="nKY59q4rCsEqJBGqj3r6-1" vertex="1">
                    <mxGeometry x="304.4300000000001" y="209" width="99.38" height="40" as="geometry"/>
                </mxCell>
                <mxCell id="4aAqZdeKpI5tSjjUqF1e-1" style="edgeStyle=none;html=1;" edge="1" parent="nKY59q4rCsEqJBGqj3r6-1" source="UaL8qSEDoXXyafwyNy03-2" target="4aAqZdeKpI5tSjjUqF1e-0">
                    <mxGeometry relative="1" as="geometry"/>
                </mxCell>
                <mxCell id="UaL8qSEDoXXyafwyNy03-2" value="&lt;font face=&quot;Times New Roman&quot;&gt;Process Data&lt;/font&gt;" style="shape=process;whiteSpace=wrap;html=1;backgroundOutline=1;size=0.10390689941812137;" parent="nKY59q4rCsEqJBGqj3r6-1" vertex="1">
                    <mxGeometry x="306.31" y="263" width="96.24" height="15" as="geometry"/>
                </mxCell>
                <mxCell id="4aAqZdeKpI5tSjjUqF1e-2" style="edgeStyle=none;html=1;" edge="1" parent="nKY59q4rCsEqJBGqj3r6-1" source="4aAqZdeKpI5tSjjUqF1e-0" target="nKY59q4rCsEqJBGqj3r6-18">
                    <mxGeometry relative="1" as="geometry"/>
                </mxCell>
                <mxCell id="4aAqZdeKpI5tSjjUqF1e-0" value="Robot Stabil (Roll, Pitch=0)" style="shape=parallelogram;perimeter=parallelogramPerimeter;whiteSpace=wrap;html=1;fixedSize=1;" vertex="1" parent="nKY59q4rCsEqJBGqj3r6-1">
                    <mxGeometry x="263.59999999999997" y="293" width="179.22" height="20" as="geometry"/>
                </mxCell>
            </root>
        </mxGraphModel>
    </diagram>
    <diagram id="BuBfJXl2WCBWpeAN5ICa" name="Page-3">
        <mxGraphModel dx="806" dy="467" grid="1" gridSize="10" guides="1" tooltips="1" connect="1" arrows="1" fold="1" page="1" pageScale="1" pageWidth="850" pageHeight="1100" math="0" shadow="0">
            <root>
                <mxCell id="H2aRWEQ9C2itSb5f_uay-0"/>
                <mxCell id="H2aRWEQ9C2itSb5f_uay-1" parent="H2aRWEQ9C2itSb5f_uay-0"/>
                <mxCell id="scPLqj7lEBCLQPymiZIo-0" value="" style="edgeStyle=orthogonalEdgeStyle;rounded=0;orthogonalLoop=1;jettySize=auto;html=1;" parent="H2aRWEQ9C2itSb5f_uay-1" source="scPLqj7lEBCLQPymiZIo-1" target="scPLqj7lEBCLQPymiZIo-5" edge="1">
                    <mxGeometry relative="1" as="geometry"/>
                </mxCell>
                <mxCell id="scPLqj7lEBCLQPymiZIo-1" value="&lt;font face=&quot;Times New Roman&quot;&gt;Desain Filter Madgwick&lt;/font&gt;" style="rounded=1;whiteSpace=wrap;html=1;arcSize=50;" parent="H2aRWEQ9C2itSb5f_uay-1" vertex="1">
                    <mxGeometry x="377.41" y="10" width="84.21" height="30" as="geometry"/>
                </mxCell>
                <mxCell id="scPLqj7lEBCLQPymiZIo-2" style="edgeStyle=orthogonalEdgeStyle;rounded=0;orthogonalLoop=1;jettySize=auto;html=1;entryX=0.5;entryY=0;entryDx=0;entryDy=0;" parent="H2aRWEQ9C2itSb5f_uay-1" source="scPLqj7lEBCLQPymiZIo-3" target="scPLqj7lEBCLQPymiZIo-8" edge="1">
                    <mxGeometry relative="1" as="geometry"/>
                </mxCell>
                <mxCell id="scPLqj7lEBCLQPymiZIo-3" value="&lt;font face=&quot;Times New Roman&quot;&gt;Acceleromter(Acc), Gyroscope(Gyro), Magentometer(Mag)&lt;/font&gt;" style="shape=parallelogram;perimeter=parallelogramPerimeter;whiteSpace=wrap;html=1;fixedSize=1;" parent="H2aRWEQ9C2itSb5f_uay-1" vertex="1">
                    <mxGeometry x="350.6" y="112.5" width="140.25" height="45" as="geometry"/>
                </mxCell>
                <mxCell id="scPLqj7lEBCLQPymiZIo-4" value="" style="edgeStyle=orthogonalEdgeStyle;rounded=0;orthogonalLoop=1;jettySize=auto;html=1;" parent="H2aRWEQ9C2itSb5f_uay-1" source="scPLqj7lEBCLQPymiZIo-5" target="scPLqj7lEBCLQPymiZIo-3" edge="1">
                    <mxGeometry relative="1" as="geometry"/>
                </mxCell>
                <mxCell id="scPLqj7lEBCLQPymiZIo-5" value="&lt;font face=&quot;Times New Roman&quot;&gt;&amp;nbsp;InverseSampling Rate dan Beta&amp;nbsp;&lt;/font&gt;" style="rounded=0;whiteSpace=wrap;html=1;" parent="H2aRWEQ9C2itSb5f_uay-1" vertex="1">
                    <mxGeometry x="369.28999999999996" y="60" width="99.21" height="30" as="geometry"/>
                </mxCell>
                <mxCell id="scPLqj7lEBCLQPymiZIo-6" value="&lt;font face=&quot;Times New Roman&quot;&gt;Selesai&lt;br&gt;(Desain Filter Madgwick)&lt;/font&gt;" style="whiteSpace=wrap;html=1;rounded=1;arcSize=50;" parent="H2aRWEQ9C2itSb5f_uay-1" vertex="1">
                    <mxGeometry x="368.11" y="740" width="100.13" height="40" as="geometry"/>
                </mxCell>
                <mxCell id="scPLqj7lEBCLQPymiZIo-7" value="" style="edgeStyle=orthogonalEdgeStyle;rounded=0;orthogonalLoop=1;jettySize=auto;html=1;" parent="H2aRWEQ9C2itSb5f_uay-1" source="scPLqj7lEBCLQPymiZIo-8" target="scPLqj7lEBCLQPymiZIo-13" edge="1">
                    <mxGeometry relative="1" as="geometry"/>
                </mxCell>
                <mxCell id="scPLqj7lEBCLQPymiZIo-8" value="&lt;font face=&quot;Times New Roman&quot;&gt;Update&lt;br&gt;(9 DoF)&lt;/font&gt;" style="rounded=1;whiteSpace=wrap;html=1;arcSize=0;" parent="H2aRWEQ9C2itSb5f_uay-1" vertex="1">
                    <mxGeometry x="389.6" y="180" width="62.26" height="30" as="geometry"/>
                </mxCell>
                <mxCell id="scPLqj7lEBCLQPymiZIo-9" value="" style="edgeStyle=orthogonalEdgeStyle;rounded=0;orthogonalLoop=1;jettySize=auto;html=1;" parent="H2aRWEQ9C2itSb5f_uay-1" source="scPLqj7lEBCLQPymiZIo-10" target="scPLqj7lEBCLQPymiZIo-6" edge="1">
                    <mxGeometry relative="1" as="geometry"/>
                </mxCell>
                <mxCell id="scPLqj7lEBCLQPymiZIo-10" value="&lt;font face=&quot;Times New Roman&quot;&gt;Roll, Pitch, Yaw&lt;br&gt;(Sudut Euler)&lt;/font&gt;" style="shape=parallelogram;perimeter=parallelogramPerimeter;whiteSpace=wrap;html=1;fixedSize=1;" parent="H2aRWEQ9C2itSb5f_uay-1" vertex="1">
                    <mxGeometry x="365.55" y="690" width="106.68" height="30" as="geometry"/>
                </mxCell>
                <mxCell id="scPLqj7lEBCLQPymiZIo-11" value="" style="edgeStyle=orthogonalEdgeStyle;rounded=0;orthogonalLoop=1;jettySize=auto;html=1;" parent="H2aRWEQ9C2itSb5f_uay-1" source="scPLqj7lEBCLQPymiZIo-13" target="scPLqj7lEBCLQPymiZIo-15" edge="1">
                    <mxGeometry relative="1" as="geometry"/>
                </mxCell>
                <mxCell id="scPLqj7lEBCLQPymiZIo-12" value="" style="edgeStyle=orthogonalEdgeStyle;rounded=0;orthogonalLoop=1;jettySize=auto;html=1;" parent="H2aRWEQ9C2itSb5f_uay-1" source="scPLqj7lEBCLQPymiZIo-13" target="scPLqj7lEBCLQPymiZIo-17" edge="1">
                    <mxGeometry relative="1" as="geometry"/>
                </mxCell>
                <mxCell id="scPLqj7lEBCLQPymiZIo-13" value="Mag?" style="rhombus;whiteSpace=wrap;html=1;rounded=1;arcSize=0;" parent="H2aRWEQ9C2itSb5f_uay-1" vertex="1">
                    <mxGeometry x="396.8299999999999" y="233" width="46.25" height="55" as="geometry"/>
                </mxCell>
                <mxCell id="scPLqj7lEBCLQPymiZIo-14" style="edgeStyle=orthogonalEdgeStyle;rounded=0;orthogonalLoop=1;jettySize=auto;html=1;entryX=0.5;entryY=0;entryDx=0;entryDy=0;" parent="H2aRWEQ9C2itSb5f_uay-1" source="scPLqj7lEBCLQPymiZIo-15" target="scPLqj7lEBCLQPymiZIo-33" edge="1">
                    <mxGeometry relative="1" as="geometry"/>
                </mxCell>
                <mxCell id="scPLqj7lEBCLQPymiZIo-15" value="UpdateIMU&lt;br&gt;(6 DoF)" style="shape=process;whiteSpace=wrap;html=1;backgroundOutline=1;size=0;" parent="H2aRWEQ9C2itSb5f_uay-1" vertex="1">
                    <mxGeometry x="482.75" y="248.25" width="87.5" height="25" as="geometry"/>
                </mxCell>
                <mxCell id="scPLqj7lEBCLQPymiZIo-16" value="" style="edgeStyle=orthogonalEdgeStyle;rounded=0;orthogonalLoop=1;jettySize=auto;html=1;" parent="H2aRWEQ9C2itSb5f_uay-1" source="scPLqj7lEBCLQPymiZIo-17" target="scPLqj7lEBCLQPymiZIo-23" edge="1">
                    <mxGeometry relative="1" as="geometry"/>
                </mxCell>
                <mxCell id="scPLqj7lEBCLQPymiZIo-17" value="&lt;font face=&quot;Times New Roman&quot;&gt;Convert gyro DPS to Rad/s&lt;/font&gt;" style="rounded=1;whiteSpace=wrap;html=1;arcSize=0;" parent="H2aRWEQ9C2itSb5f_uay-1" vertex="1">
                    <mxGeometry x="378.24" y="308" width="83.75" height="27.5" as="geometry"/>
                </mxCell>
                <mxCell id="scPLqj7lEBCLQPymiZIo-18" value="" style="edgeStyle=orthogonalEdgeStyle;rounded=0;orthogonalLoop=1;jettySize=auto;html=1;" parent="H2aRWEQ9C2itSb5f_uay-1" source="scPLqj7lEBCLQPymiZIo-19" target="scPLqj7lEBCLQPymiZIo-31" edge="1">
                    <mxGeometry relative="1" as="geometry"/>
                </mxCell>
                <mxCell id="scPLqj7lEBCLQPymiZIo-19" value="&lt;font face=&quot;Times New Roman&quot;&gt;Normalisasi Mag&lt;/font&gt;" style="whiteSpace=wrap;html=1;rounded=1;arcSize=0;" parent="H2aRWEQ9C2itSb5f_uay-1" vertex="1">
                    <mxGeometry x="370" y="415" width="102" height="20.5" as="geometry"/>
                </mxCell>
                <mxCell id="scPLqj7lEBCLQPymiZIo-20" value="" style="edgeStyle=orthogonalEdgeStyle;rounded=0;orthogonalLoop=1;jettySize=auto;html=1;" parent="H2aRWEQ9C2itSb5f_uay-1" source="scPLqj7lEBCLQPymiZIo-21" target="scPLqj7lEBCLQPymiZIo-25" edge="1">
                    <mxGeometry relative="1" as="geometry"/>
                </mxCell>
                <mxCell id="scPLqj7lEBCLQPymiZIo-21" value="&lt;font face=&quot;Times New Roman&quot;&gt;Gradient Decent (s)&lt;/font&gt;" style="whiteSpace=wrap;html=1;rounded=1;arcSize=0;" parent="H2aRWEQ9C2itSb5f_uay-1" vertex="1">
                    <mxGeometry x="372.85" y="498" width="97.33" height="20" as="geometry"/>
                </mxCell>
                <mxCell id="scPLqj7lEBCLQPymiZIo-22" value="" style="edgeStyle=orthogonalEdgeStyle;rounded=0;orthogonalLoop=1;jettySize=auto;html=1;" parent="H2aRWEQ9C2itSb5f_uay-1" source="scPLqj7lEBCLQPymiZIo-23" target="scPLqj7lEBCLQPymiZIo-19" edge="1">
                    <mxGeometry relative="1" as="geometry"/>
                </mxCell>
                <mxCell id="scPLqj7lEBCLQPymiZIo-23" value="Hitung qDot dari gyro" style="whiteSpace=wrap;html=1;rounded=1;arcSize=0;" parent="H2aRWEQ9C2itSb5f_uay-1" vertex="1">
                    <mxGeometry x="371.99" y="365.5" width="96.25" height="30" as="geometry"/>
                </mxCell>
                <mxCell id="scPLqj7lEBCLQPymiZIo-24" value="" style="edgeStyle=orthogonalEdgeStyle;rounded=0;orthogonalLoop=1;jettySize=auto;html=1;" parent="H2aRWEQ9C2itSb5f_uay-1" source="scPLqj7lEBCLQPymiZIo-25" target="scPLqj7lEBCLQPymiZIo-27" edge="1">
                    <mxGeometry relative="1" as="geometry"/>
                </mxCell>
                <mxCell id="scPLqj7lEBCLQPymiZIo-25" value="&lt;font face=&quot;Times New Roman&quot;&gt;Feedback dengan nilai beta (qDot = s * beta)&lt;/font&gt;" style="whiteSpace=wrap;html=1;rounded=1;arcSize=0;" parent="H2aRWEQ9C2itSb5f_uay-1" vertex="1">
                    <mxGeometry x="359.5" y="538" width="122.51" height="30" as="geometry"/>
                </mxCell>
                <mxCell id="scPLqj7lEBCLQPymiZIo-26" value="" style="edgeStyle=orthogonalEdgeStyle;rounded=0;orthogonalLoop=1;jettySize=auto;html=1;" parent="H2aRWEQ9C2itSb5f_uay-1" source="scPLqj7lEBCLQPymiZIo-27" target="scPLqj7lEBCLQPymiZIo-29" edge="1">
                    <mxGeometry relative="1" as="geometry"/>
                </mxCell>
                <mxCell id="scPLqj7lEBCLQPymiZIo-27" value="&lt;font face=&quot;Times New Roman&quot;&gt;Hitung nilai quaternion&lt;br&gt;(q = qDot * invSamplingRate)&lt;/font&gt;" style="rounded=1;whiteSpace=wrap;html=1;arcSize=0;" parent="H2aRWEQ9C2itSb5f_uay-1" vertex="1">
                    <mxGeometry x="344.9" y="587.5" width="150.44" height="32.5" as="geometry"/>
                </mxCell>
                <mxCell id="scPLqj7lEBCLQPymiZIo-37" style="edgeStyle=orthogonalEdgeStyle;rounded=0;orthogonalLoop=1;jettySize=auto;html=1;entryX=0.5;entryY=0;entryDx=0;entryDy=0;" parent="H2aRWEQ9C2itSb5f_uay-1" source="scPLqj7lEBCLQPymiZIo-29" target="scPLqj7lEBCLQPymiZIo-10" edge="1">
                    <mxGeometry relative="1" as="geometry"/>
                </mxCell>
                <mxCell id="scPLqj7lEBCLQPymiZIo-29" value="&lt;font face=&quot;Times New Roman&quot;&gt;Konversi quaternion ke sudut euler&lt;/font&gt;" style="rounded=1;whiteSpace=wrap;html=1;arcSize=0;" parent="H2aRWEQ9C2itSb5f_uay-1" vertex="1">
                    <mxGeometry x="359.98" y="640" width="119.95" height="27.5" as="geometry"/>
                </mxCell>
                <mxCell id="scPLqj7lEBCLQPymiZIo-30" style="edgeStyle=orthogonalEdgeStyle;rounded=0;orthogonalLoop=1;jettySize=auto;html=1;entryX=0.5;entryY=0;entryDx=0;entryDy=0;" parent="H2aRWEQ9C2itSb5f_uay-1" source="scPLqj7lEBCLQPymiZIo-31" target="scPLqj7lEBCLQPymiZIo-21" edge="1">
                    <mxGeometry relative="1" as="geometry"/>
                </mxCell>
                <mxCell id="scPLqj7lEBCLQPymiZIo-31" value="Normalisasi Acc" style="whiteSpace=wrap;html=1;rounded=1;arcSize=0;" parent="H2aRWEQ9C2itSb5f_uay-1" vertex="1">
                    <mxGeometry x="370" y="457" width="101.46" height="21.75" as="geometry"/>
                </mxCell>
                <mxCell id="scPLqj7lEBCLQPymiZIo-32" style="edgeStyle=orthogonalEdgeStyle;rounded=0;orthogonalLoop=1;jettySize=auto;html=1;" parent="H2aRWEQ9C2itSb5f_uay-1" source="scPLqj7lEBCLQPymiZIo-33" target="scPLqj7lEBCLQPymiZIo-35" edge="1">
                    <mxGeometry relative="1" as="geometry"/>
                </mxCell>
                <mxCell id="scPLqj7lEBCLQPymiZIo-33" value="&lt;font face=&quot;Times New Roman&quot;&gt;Convert gyro DPS to Rad/s&lt;/font&gt;" style="rounded=1;whiteSpace=wrap;html=1;arcSize=0;" parent="H2aRWEQ9C2itSb5f_uay-1" vertex="1">
                    <mxGeometry x="484.63" y="297.5" width="83.75" height="27.5" as="geometry"/>
                </mxCell>
                <mxCell id="scPLqj7lEBCLQPymiZIo-34" style="edgeStyle=orthogonalEdgeStyle;rounded=0;orthogonalLoop=1;jettySize=auto;html=1;entryX=1;entryY=0.5;entryDx=0;entryDy=0;" parent="H2aRWEQ9C2itSb5f_uay-1" source="scPLqj7lEBCLQPymiZIo-35" target="scPLqj7lEBCLQPymiZIo-31" edge="1">
                    <mxGeometry relative="1" as="geometry">
                        <Array as="points">
                            <mxPoint x="527" y="416"/>
                            <mxPoint x="527" y="468"/>
                        </Array>
                    </mxGeometry>
                </mxCell>
                <mxCell id="scPLqj7lEBCLQPymiZIo-35" value="&lt;font face=&quot;Times New Roman&quot;&gt;Hitung qDot dari gyro&lt;/font&gt;" style="whiteSpace=wrap;html=1;rounded=1;arcSize=0;" parent="H2aRWEQ9C2itSb5f_uay-1" vertex="1">
                    <mxGeometry x="478.38" y="345" width="96.25" height="30" as="geometry"/>
                </mxCell>
            </root>
        </mxGraphModel>
    </diagram>
    <diagram id="-nuwZjXYnXBQKxyOWOHR" name="Page-2">
        <mxGraphModel dx="806" dy="467" grid="0" gridSize="10" guides="1" tooltips="1" connect="1" arrows="1" fold="1" page="1" pageScale="1" pageWidth="850" pageHeight="1100" math="0" shadow="0">
            <root>
                <mxCell id="R7MPjAdl8ZnxEVZZ4GXp-0"/>
                <mxCell id="R7MPjAdl8ZnxEVZZ4GXp-1" parent="R7MPjAdl8ZnxEVZZ4GXp-0"/>
                <mxCell id="hAlSIp0OMCQ0wBAgTdk8-6" value="" style="edgeStyle=none;html=1;" parent="R7MPjAdl8ZnxEVZZ4GXp-1" source="f78Xwyn0-9pBlHI2riHW-1" target="hAlSIp0OMCQ0wBAgTdk8-3" edge="1">
                    <mxGeometry relative="1" as="geometry"/>
                </mxCell>
                <mxCell id="f78Xwyn0-9pBlHI2riHW-1" value="&lt;font face=&quot;Times New Roman&quot;&gt;Process Data&lt;/font&gt;" style="rounded=1;whiteSpace=wrap;html=1;arcSize=50;" parent="R7MPjAdl8ZnxEVZZ4GXp-1" vertex="1">
                    <mxGeometry x="211.22" y="20" width="95" height="20" as="geometry"/>
                </mxCell>
                <mxCell id="f78Xwyn0-9pBlHI2riHW-2" value="&lt;font face=&quot;Times New Roman&quot;&gt;Selesai&lt;br&gt;(Process Data)&lt;/font&gt;" style="whiteSpace=wrap;html=1;rounded=1;arcSize=50;" parent="R7MPjAdl8ZnxEVZZ4GXp-1" vertex="1">
                    <mxGeometry x="209.66999999999996" y="480" width="100" height="30" as="geometry"/>
                </mxCell>
                <mxCell id="f78Xwyn0-9pBlHI2riHW-3" style="edgeStyle=orthogonalEdgeStyle;rounded=0;orthogonalLoop=1;jettySize=auto;html=1;" parent="R7MPjAdl8ZnxEVZZ4GXp-1" source="f78Xwyn0-9pBlHI2riHW-4" target="f78Xwyn0-9pBlHI2riHW-18" edge="1">
                    <mxGeometry relative="1" as="geometry"/>
                </mxCell>
                <mxCell id="f78Xwyn0-9pBlHI2riHW-4" value="&lt;font face=&quot;Times New Roman&quot;&gt;Olah Data IMU dengan MATLAB&lt;/font&gt;" style="rounded=1;whiteSpace=wrap;html=1;arcSize=0;" parent="R7MPjAdl8ZnxEVZZ4GXp-1" vertex="1">
                    <mxGeometry x="210.5900000000001" y="273" width="98.13" height="35" as="geometry"/>
                </mxCell>
                <mxCell id="hAlSIp0OMCQ0wBAgTdk8-4" value="" style="edgeStyle=none;html=1;" parent="R7MPjAdl8ZnxEVZZ4GXp-1" source="f78Xwyn0-9pBlHI2riHW-8" target="f78Xwyn0-9pBlHI2riHW-16" edge="1">
                    <mxGeometry relative="1" as="geometry"/>
                </mxCell>
                <mxCell id="f78Xwyn0-9pBlHI2riHW-8" value="&lt;font face=&quot;Times New Roman&quot;&gt;Arduino Data (IMU + Filter Realtime)&lt;/font&gt;" style="rounded=1;whiteSpace=wrap;html=1;arcSize=0;" parent="R7MPjAdl8ZnxEVZZ4GXp-1" vertex="1">
                    <mxGeometry x="206.22000000000006" y="105" width="106.88" height="40" as="geometry"/>
                </mxCell>
                <mxCell id="f78Xwyn0-9pBlHI2riHW-9" style="edgeStyle=orthogonalEdgeStyle;rounded=0;orthogonalLoop=1;jettySize=auto;html=1;" parent="R7MPjAdl8ZnxEVZZ4GXp-1" source="f78Xwyn0-9pBlHI2riHW-10" target="f78Xwyn0-9pBlHI2riHW-4" edge="1">
                    <mxGeometry relative="1" as="geometry"/>
                </mxCell>
                <mxCell id="f78Xwyn0-9pBlHI2riHW-10" value="&lt;font face=&quot;Times New Roman&quot;&gt;Acc, Gyro, Mag, Roll, Pitch, Yaw&lt;/font&gt;" style="shape=parallelogram;perimeter=parallelogramPerimeter;whiteSpace=wrap;html=1;fixedSize=1;rounded=1;arcSize=0;" parent="R7MPjAdl8ZnxEVZZ4GXp-1" vertex="1">
                    <mxGeometry x="205.91000000000005" y="213" width="106.88" height="40" as="geometry"/>
                </mxCell>
                <mxCell id="f78Xwyn0-9pBlHI2riHW-11" value="" style="edgeStyle=orthogonalEdgeStyle;rounded=0;orthogonalLoop=1;jettySize=auto;html=1;" parent="R7MPjAdl8ZnxEVZZ4GXp-1" source="f78Xwyn0-9pBlHI2riHW-12" target="f78Xwyn0-9pBlHI2riHW-14" edge="1">
                    <mxGeometry relative="1" as="geometry"/>
                </mxCell>
                <mxCell id="f78Xwyn0-9pBlHI2riHW-12" value="&lt;font face=&quot;Times New Roman&quot;&gt;Hitung nilai RMSE&lt;/font&gt;" style="whiteSpace=wrap;html=1;rounded=1;arcSize=0;" parent="R7MPjAdl8ZnxEVZZ4GXp-1" vertex="1">
                    <mxGeometry x="205.60000000000008" y="384" width="108.12" height="25" as="geometry"/>
                </mxCell>
                <mxCell id="f78Xwyn0-9pBlHI2riHW-13" value="" style="edgeStyle=orthogonalEdgeStyle;rounded=0;orthogonalLoop=1;jettySize=auto;html=1;" parent="R7MPjAdl8ZnxEVZZ4GXp-1" source="f78Xwyn0-9pBlHI2riHW-14" target="f78Xwyn0-9pBlHI2riHW-2" edge="1">
                    <mxGeometry relative="1" as="geometry"/>
                </mxCell>
                <mxCell id="f78Xwyn0-9pBlHI2riHW-14" value="&lt;font face=&quot;Times New Roman&quot;&gt;RMSE, Plot&lt;/font&gt;" style="shape=parallelogram;perimeter=parallelogramPerimeter;whiteSpace=wrap;html=1;fixedSize=1;rounded=1;arcSize=0;" parent="R7MPjAdl8ZnxEVZZ4GXp-1" vertex="1">
                    <mxGeometry x="211.22999999999996" y="430" width="96.87" height="28.75" as="geometry"/>
                </mxCell>
                <mxCell id="f78Xwyn0-9pBlHI2riHW-15" value="" style="edgeStyle=orthogonalEdgeStyle;rounded=0;orthogonalLoop=1;jettySize=auto;html=1;" parent="R7MPjAdl8ZnxEVZZ4GXp-1" source="f78Xwyn0-9pBlHI2riHW-16" target="f78Xwyn0-9pBlHI2riHW-10" edge="1">
                    <mxGeometry relative="1" as="geometry"/>
                </mxCell>
                <mxCell id="f78Xwyn0-9pBlHI2riHW-16" value="&lt;font face=&quot;Times New Roman&quot;&gt;Desain Madgwick Filter&lt;/font&gt;" style="shape=process;whiteSpace=wrap;html=1;backgroundOutline=1;size=0;" parent="R7MPjAdl8ZnxEVZZ4GXp-1" vertex="1">
                    <mxGeometry x="204.66" y="163" width="110" height="30" as="geometry"/>
                </mxCell>
                <mxCell id="f78Xwyn0-9pBlHI2riHW-17" style="edgeStyle=orthogonalEdgeStyle;rounded=0;orthogonalLoop=1;jettySize=auto;html=1;" parent="R7MPjAdl8ZnxEVZZ4GXp-1" source="f78Xwyn0-9pBlHI2riHW-18" target="f78Xwyn0-9pBlHI2riHW-12" edge="1">
                    <mxGeometry relative="1" as="geometry"/>
                </mxCell>
                <mxCell id="f78Xwyn0-9pBlHI2riHW-18" value="&lt;font face=&quot;Times New Roman&quot;&gt;Desain Madgwick Filter&lt;/font&gt;" style="shape=process;whiteSpace=wrap;html=1;backgroundOutline=1;size=0;" parent="R7MPjAdl8ZnxEVZZ4GXp-1" vertex="1">
                    <mxGeometry x="204.66" y="331" width="110" height="30" as="geometry"/>
                </mxCell>
                <mxCell id="hAlSIp0OMCQ0wBAgTdk8-5" value="" style="edgeStyle=none;html=1;entryX=0.5;entryY=0;entryDx=0;entryDy=0;" parent="R7MPjAdl8ZnxEVZZ4GXp-1" source="hAlSIp0OMCQ0wBAgTdk8-3" target="f78Xwyn0-9pBlHI2riHW-8" edge="1">
                    <mxGeometry relative="1" as="geometry"/>
                </mxCell>
                <mxCell id="hAlSIp0OMCQ0wBAgTdk8-3" value="&lt;font face=&quot;Times New Roman&quot;&gt;Kalibrasi&amp;nbsp;&lt;/font&gt;" style="rounded=1;whiteSpace=wrap;html=1;arcSize=0;" parent="R7MPjAdl8ZnxEVZZ4GXp-1" vertex="1">
                    <mxGeometry x="224.6600000000001" y="60" width="70" height="30" as="geometry"/>
                </mxCell>
            </root>
        </mxGraphModel>
    </diagram>
</mxfile>